G04*
G04 #@! TF.GenerationSoftware,Altium Limited,Altium Designer,25.5.2 (35)*
G04*
G04 Layer_Color=128*
%FSLAX44Y44*%
%MOMM*%
G71*
G04*
G04 #@! TF.SameCoordinates,1A5A03D7-52CA-4A71-BDE1-DE34C6CC3817*
G04*
G04*
G04 #@! TF.FilePolarity,Positive*
G04*
G01*
G75*
%ADD42C,0.6400*%
D42*
X1167130Y940950D02*
D03*
Y953650D02*
D03*
Y598050D02*
D03*
X1154430Y686950D02*
D03*
X1167130Y699650D02*
D03*
X1103630Y953650D02*
D03*
Y966350D02*
D03*
X1116330Y483750D02*
D03*
X1103630Y471050D02*
D03*
X1116330Y623450D02*
D03*
Y636150D02*
D03*
X1103630Y839350D02*
D03*
Y877450D02*
D03*
Y852050D02*
D03*
X1167130Y966350D02*
D03*
Y928250D02*
D03*
Y877450D02*
D03*
Y915550D02*
D03*
Y864750D02*
D03*
X1154430Y940950D02*
D03*
Y953650D02*
D03*
X1167130Y826650D02*
D03*
Y813950D02*
D03*
Y775850D02*
D03*
Y763150D02*
D03*
X1154430Y852050D02*
D03*
Y813950D02*
D03*
Y775850D02*
D03*
Y902850D02*
D03*
Y890150D02*
D03*
X1116330Y928250D02*
D03*
Y966350D02*
D03*
Y915550D02*
D03*
Y877450D02*
D03*
Y839350D02*
D03*
Y801250D02*
D03*
Y763150D02*
D03*
X1167130Y712350D02*
D03*
Y725050D02*
D03*
Y674250D02*
D03*
Y661550D02*
D03*
Y496450D02*
D03*
Y521850D02*
D03*
Y471050D02*
D03*
Y623450D02*
D03*
Y610750D02*
D03*
Y572650D02*
D03*
Y559950D02*
D03*
X1154430Y699650D02*
D03*
Y737750D02*
D03*
Y661550D02*
D03*
X1116330Y725050D02*
D03*
Y686950D02*
D03*
X1154430Y623450D02*
D03*
Y483750D02*
D03*
Y509150D02*
D03*
X1116330Y496450D02*
D03*
Y534550D02*
D03*
Y471050D02*
D03*
Y610750D02*
D03*
Y648850D02*
D03*
Y572650D02*
D03*
X1103630Y940950D02*
D03*
Y902850D02*
D03*
Y864750D02*
D03*
Y826650D02*
D03*
Y750450D02*
D03*
Y788550D02*
D03*
Y674250D02*
D03*
Y636150D02*
D03*
Y712350D02*
D03*
Y598050D02*
D03*
Y559950D02*
D03*
Y521850D02*
D03*
Y483750D02*
D03*
Y890150D02*
D03*
X1167130Y648850D02*
D03*
X1154430Y839350D02*
D03*
X1116330Y585350D02*
D03*
Y598050D02*
D03*
Y509150D02*
D03*
Y547250D02*
D03*
Y521850D02*
D03*
X1154430Y826650D02*
D03*
X1103630Y585350D02*
D03*
Y572650D02*
D03*
X1167130Y801250D02*
D03*
X1103630Y496450D02*
D03*
Y509150D02*
D03*
Y534550D02*
D03*
Y547250D02*
D03*
X1116330Y559950D02*
D03*
X1103630Y610750D02*
D03*
Y623450D02*
D03*
Y648850D02*
D03*
X1116330Y661550D02*
D03*
X1103630D02*
D03*
X1116330Y674250D02*
D03*
X1103630Y686950D02*
D03*
X1116330Y699650D02*
D03*
X1103630D02*
D03*
X1116330Y712350D02*
D03*
X1103630Y725050D02*
D03*
X1116330Y737750D02*
D03*
X1103630D02*
D03*
X1116330Y750450D02*
D03*
X1103630Y763150D02*
D03*
X1116330Y775850D02*
D03*
X1103630D02*
D03*
X1116330Y788550D02*
D03*
X1103630Y801250D02*
D03*
X1116330Y813950D02*
D03*
X1103630D02*
D03*
X1116330Y826650D02*
D03*
Y852050D02*
D03*
Y864750D02*
D03*
Y890150D02*
D03*
Y940950D02*
D03*
Y953650D02*
D03*
X1154430Y471050D02*
D03*
Y496450D02*
D03*
Y521850D02*
D03*
Y534550D02*
D03*
Y547250D02*
D03*
Y559950D02*
D03*
Y572650D02*
D03*
Y585350D02*
D03*
Y598050D02*
D03*
Y610750D02*
D03*
Y636150D02*
D03*
Y648850D02*
D03*
Y674250D02*
D03*
Y712350D02*
D03*
Y725050D02*
D03*
Y750450D02*
D03*
Y763150D02*
D03*
Y788550D02*
D03*
Y801250D02*
D03*
Y864750D02*
D03*
Y877450D02*
D03*
Y915550D02*
D03*
Y928250D02*
D03*
Y966350D02*
D03*
X1167130Y483750D02*
D03*
Y509150D02*
D03*
Y534550D02*
D03*
Y547250D02*
D03*
Y585350D02*
D03*
Y636150D02*
D03*
Y686950D02*
D03*
Y737750D02*
D03*
Y750450D02*
D03*
Y788550D02*
D03*
Y839350D02*
D03*
Y852050D02*
D03*
Y890150D02*
D03*
Y902850D02*
D03*
X1103630Y915550D02*
D03*
Y928250D02*
D03*
X1116330Y902850D02*
D03*
M02*
