G04*
G04 #@! TF.GenerationSoftware,Altium Limited,Altium Designer,25.5.2 (35)*
G04*
G04 Layer_Color=8421504*
%FSLAX44Y44*%
%MOMM*%
G71*
G04*
G04 #@! TF.SameCoordinates,1A5A03D7-52CA-4A71-BDE1-DE34C6CC3817*
G04*
G04*
G04 #@! TF.FilePolarity,Positive*
G04*
G01*
G75*
G04:AMPARAMS|DCode=15|XSize=1.97mm|YSize=0.6mm|CornerRadius=0.075mm|HoleSize=0mm|Usage=FLASHONLY|Rotation=270.000|XOffset=0mm|YOffset=0mm|HoleType=Round|Shape=RoundedRectangle|*
%AMROUNDEDRECTD15*
21,1,1.9700,0.4500,0,0,270.0*
21,1,1.8200,0.6000,0,0,270.0*
1,1,0.1500,-0.2250,-0.9100*
1,1,0.1500,-0.2250,0.9100*
1,1,0.1500,0.2250,0.9100*
1,1,0.1500,0.2250,-0.9100*
%
%ADD15ROUNDEDRECTD15*%
%ADD16C,0.2540*%
%ADD17R,0.5500X0.5500*%
%ADD18R,2.3876X0.8890*%
%ADD19R,0.6350X0.5080*%
D15*
X1248410Y639380D02*
D03*
X1235710D02*
D03*
X1223010D02*
D03*
X1210310D02*
D03*
Y589980D02*
D03*
X1223010D02*
D03*
X1235710D02*
D03*
X1248410D02*
D03*
D16*
X1179830Y779780D02*
D03*
X1189990D02*
D03*
X1177290Y683260D02*
D03*
X1187450D02*
D03*
X1176020Y644652D02*
D03*
X1186180Y628142D02*
D03*
X1176020D02*
D03*
X1186180Y644652D02*
D03*
X1189990Y797560D02*
D03*
X1179830D02*
D03*
Y830580D02*
D03*
X1189990D02*
D03*
Y848360D02*
D03*
X1179830D02*
D03*
X1187450Y665480D02*
D03*
X1177290D02*
D03*
X1189990Y746760D02*
D03*
X1179830D02*
D03*
Y728980D02*
D03*
X1189990D02*
D03*
Y813816D02*
D03*
X1179830D02*
D03*
D17*
X1223010Y564570D02*
D03*
X1210310Y555642D02*
D03*
Y564642D02*
D03*
X1223010Y555570D02*
D03*
D18*
X845533Y1086485D02*
D03*
Y1073785D02*
D03*
Y1061085D02*
D03*
Y1048385D02*
D03*
Y1035685D02*
D03*
Y1022985D02*
D03*
Y1010285D02*
D03*
X845036Y757428D02*
D03*
Y719328D02*
D03*
Y681228D02*
D03*
X844782Y427482D02*
D03*
Y389382D02*
D03*
Y351282D02*
D03*
Y414782D02*
D03*
Y402082D02*
D03*
X845036Y693928D02*
D03*
Y706628D02*
D03*
Y732028D02*
D03*
Y744728D02*
D03*
X844782Y363982D02*
D03*
Y376682D02*
D03*
D19*
X1248508Y563024D02*
D03*
Y573024D02*
D03*
M02*
