M48
;Layer_Color=9474304
;FILE_FORMAT=4:4
METRIC,LZ
;TYPE=PLATED
T01F00S00C0.3000
T02F00S00C1.1000
T03F00S00C1.3462
T04F00S00C2.7000
;TYPE=NON_PLATED
T05F00S00C1.2700
%
T01
X0068072Y0014224
X0067056Y0016256
X0068072Y0018288
X0069088Y002032
X007112
X0073152
X0075184
X00762Y0022352
X0078232
X0079248Y0024384
X0077216
X0078232Y0026416
X00762
Y003048
X0078232
X0079248Y0032512
X0077216
X0078232Y0034544
X00762
X0077216Y0036576
X0079248
X0069088
X0067056
X0068072Y0038608
X0070104
Y0034544
X0068072
X0069088Y0032512
X0067056
X0068072Y003048
X0070104
X0069088Y0028448
X0067056
X0068072Y0026416
X0070104
X007112Y0024384
X0069088
X0067056
X0068072Y0022352
X0070104
X0067056Y002032
X0074168Y0018288
X00762
X0077216Y0016256
X0079248
X0078232Y0014224
X00762
X0074168
X0075184Y0016256
Y0012192
X0077216
X0079248
X0073152
X007112
X0079248Y002032
X008128
X0083312
X0085344
X0087376
X0089408
X009144
X0093472
X0092456Y0022352
X0090424
X0088392
X008636
X0084328
X0082296
X0080264
X008128Y0024384
X0083312
X0085344
X0087376
X0089408
X009144
X0092456Y0026416
X0090424
X0088392
X008636
X0084328
X0082296
X0080264
Y003048
X0082296
X0084328
X008636
X0087376Y0032512
X0089408
X009144
X0092456Y0034544
X0090424
Y0038608
X0092456
X0088392
X008636
X00844776Y00389376
Y00376676
X00844782Y00363982
Y00351282
X008636Y0034544
X0082296
X0080264
X008128Y0036576
X0082296Y0038608
X0080264
X008128Y0032512
X0087376Y0028448
X0089408
X009144
X0093472
X0095504
X0097536
X0099568
X01016
X0102616Y003048
X0100584
X0098552
X0099568Y0032512
X01016
X0103632
X0105664
X010668Y0034544
X0104648
X0105664Y0036576
X0107696
X0109728
X0110744Y0034544
X011176Y0032512
X010668Y003048
X0107696Y0028448
X0102616Y0026416
X0103632Y0024384
X0098552Y0026416
Y0022352
X0099568Y002032
X0097536Y0016256
X0095504
X0093472
X009144
X0089408
X0087376
X0085344
X0083312
X008128
X0082296Y0014224
X0084328
X008636
X0088392
X0090424
X0092456
X0094488
X009144Y0012192
X0089408
X0087376
X0085344
X0083312
X008128
X0080264Y0014224
X0095504Y0024384
Y0032512
X0098552Y0034544
X0100584
X0103632Y0036576
X010668Y0038608
X0108712
X0114808
X0115824Y0036576
X0098552Y0038608
X0092456Y003048
X0090424
X0119888Y0036576
X012192
X0123952
X0125984
X0128016
X0129032Y0038608
X0131064
X0124968
X0122936
X0120904
X0119888Y004064
X0123952
X0124968Y0042672
X0129032
X0131064
X0130048Y0044704
X0128016
X0129032Y0046736
X0131064
X0130048Y0048768
X0128016
X0129032Y00508
X0131064
X0130048Y0052832
X0128016
X0129032Y0054864
X0131064
X0130048Y0056896
X0128016
X01260856Y00573024
X0123571Y00567944
X01223023Y00573037
X01210323Y00573291
X0119888Y0056896
X01210323Y00547878
X01223023
X0123952Y0052832
Y0048768
X012192
X0119888
X0120904Y00508
Y0046736
X0122936
X0127Y0054864
X0129032Y0058928
X0131064
X0130048Y006096
X0131064Y0062992
X0129032
X0127
X0125984Y0065024
X0127Y0067056
X0129032
X0131064
X0130048Y0069088
X0131064Y007112
X0129032
X0130048Y0073152
X0131064Y0075184
X0130048Y0077216
X0131064Y0079248
X0129032
X01233424Y00781558
X0123952Y0077216
X0122936Y0075184
X01203706Y00752602
X0119888Y0077216
X0120904Y0079248
X012192Y0073152
X0119888
X01233932Y00660908
X0124968Y0067056
X01246124Y00608076
X0125984Y006096
X0120904Y0062992
X0130048Y0065024
Y004064
X0118872Y0042672
X011684
X0115824Y004064
X0114808Y0046482
X0112776Y0046736
X01109986Y00477526
Y00490226
Y00502926
X01109993Y00515633
X01097293
Y00528333
Y00541033
X01109993
Y00528333
X0110998Y0055372
X01098042Y00554228
X01089406Y00553212
X01081291Y00560845
X01097293Y00566433
Y00579133
Y00591833
X01109993
X01121423Y00591579
X01122185Y00578879
X01109993Y00579133
Y00566433
X01120915Y00566699
X01148086Y00566426
Y00579126
X01160774Y00579114
Y00591814
X01148086Y00591826
Y00604526
X01160786
Y00617226
X01148086
Y00629926
Y00642626
Y00655326
X01160786
Y00668026
Y00680726
X01148086
Y00693426
X01160786
Y00706126
X0116078Y0071882
Y0073152
X0114808
X0113792
X0114808Y0071882
X01148086Y00706126
X01109993Y00706133
X01097293
Y00718833
X01097286Y00731526
X01109986
Y00744226
Y00756926
Y00769626
X0110998Y0078232
X01097286Y00782326
Y00744226
X0108712Y0075184
X010668
X0104648
X0102616
X0100584
X0098552
X0099568Y0073152
X01016
X0103632
X0105664
X0107696
X01109986Y00718826
X01109993Y00693433
Y00680733
Y00668033
X01097293
X01109993Y00655333
Y00642633
Y00629933
Y00617233
Y00604533
X01097293Y00629933
X0108712Y0062992
X0112776
X0113792Y0065024
X01148086Y00668026
X01160786Y00642626
Y00629926
X01185999Y00628154
X01186212Y00644345
X0117856Y006096
X01148086Y00553726
Y00541026
Y00528326
Y00515626
X0114808Y0049022
X0113792Y0048768
X0116078Y0047752
X0117856Y0048768
X0118872Y0046736
X01097286Y00464826
X010668Y0046736
Y0042672
X0108712
X0107696Y004064
X0102616Y0042672
Y0046736
X01008634Y0048895
X00986549Y00482867
X00986028Y0046609
X0098552Y0042672
X0095504Y0044704
X009144
X0089408
X0087376
X0088392Y0046736
X0090424
X0092456
X0093472Y0048768
X009144
X0089408
X0087376
X0085344
X008636Y0046736
X0084328
X0083312Y0044704
X008128
X0080264Y0042672
X008128Y004064
X00844788Y00402088
X00844782Y00414782
Y00427482
X008636Y0042672
X0088392
X0090424
X0092456
X009144Y004064
X0092456Y00508
X0090424
X0088392
X0089408Y0052832
X009144
X0092456Y0054864
X0090424
X0088392
X008636
X0084328
X0082296
X0080264
X008128Y0056896
X0083312
X0085344
X0087376
X0089408
X009144
Y006096
X0089408
X0087376
X0085344
X0083312
X008128
X0082296Y0062992
X0084328
X008636
X0088392
X0090424
X0092456
X009144Y0065024
X0089408
X0087376
Y0069088
X0088392Y007112
X0090424
X0092456
X009144Y0073152
X0089408
X0087376
X008636Y0075184
X00845036Y00757428
X0082296Y0075184
X0080264
X008128Y0073152
X0082296Y007112
X0080264
X008128Y0069088
Y0065024
X0083312
X00845036Y00681228
X0084503Y00719322
X008636Y007112
X0087376Y0077216
X0089408
X009144
X0092456Y0079248
Y0075184
X0090424
X0088392Y0079248
X0084328
X0082296
X0080264
Y0062992
X008128Y0052832
X0083312
X0085344
X0087376
X0084328Y00508
X0082296
X0080264
X008128Y0048768
X0095504Y0052832
X0098552Y0054864
X0100584Y0058928
X01016Y006096
X0100584Y0062992
X0098552
X0099568Y0065024
X01016
X0102616Y00684784
X0100457Y00684276
X0100584Y007112
X0102616
X0104648
X01049528Y00684276
X0098552Y007112
X0095504Y0073152
Y006096
X01032764Y00512826
X01057161Y00537223
X0116078Y005409
X0118872Y007112
X0116078Y0074422
Y0075692
Y0076962
X0114808
X0113792Y0077216
X0114808Y0078232
X0116078
X0114808Y0075692
Y0074422
X0079248Y0073152
X0077216
X0078232Y0075184
X00762
Y0079248
X0078232
X0073152Y0077216
X007112
X0069088
X0067056
X0068072Y0079248
X0070104
Y0075184
X0068072
X0069088Y0073152
X0067056
X0068072Y007112
X0070104
X007112Y0069088
X0073152
X0069088
X0067056
X0068072Y0067056
X0070104
X0069088Y0065024
X0067056
X0068072Y0062992
X0070104
X0069088Y006096
X0067056
X0068072Y0058928
X0070104
X007112Y0056896
X0073152
X0077216
X0079248
X0078232Y0054864
X00762
X0077216Y0052832
X0079248
X0078232Y00508
X00762
X0077216Y0048768
X0079248
Y0044704
X0077216
X0078232Y0042672
X00762
X0077216Y004064
X007112
X0069088
X0067056
X0068072Y0042672
X0070104
X0069088Y0044704
X0067056
X0068072Y0046736
X0070104
X007112Y0048768
X0073152
X0069088
X0067056
X0068072Y00508
X0070104
X0069088Y0052832
X0067056
X0068072Y0054864
X0070104
X0069088Y0056896
X0067056
X0077216Y006096
X0079248
X0078232Y0062992
X00762
X0077216Y0065024
X0079248
X0078232Y007112
X00762
X0077216Y008128
X0079248
X0078232Y0083312
X00762
X0077216Y0085344
X0079248
X0078232Y0087376
X00762
X0074168
X0070104
X0068072
X0069088Y0089408
X0067056
X0068072Y009144
X0070104
X0069088Y0093472
X0067056
X0068072Y0095504
X0070104
X0069088Y0097536
X0067056
X0068072Y0099568
X0070104
X007112Y01016
X0069088
X0067056
X0068072Y0103632
X0070104
X0069088Y0105664
X0067056
X0068072Y0107696
X0070104
X007112Y0109728
X0073152
X0077216
X0079248
X0078232Y011176
X00762
X0077216Y0113792
X0079248
X0078232Y0115824
X00762
X0070104
X0068072
X0069088Y0117856
X007112
X0067056
Y0113792
X0069088
X0070104Y011176
X0068072
X0069088Y0109728
X0067056
X0077216Y0105664
X0079248
X0078232Y0103632
X00762
X0077216Y01016
X0079248
Y0097536
X0077216
X0078232Y0095504
X00762
X0077216Y0093472
X0079248
X0078232Y009144
X00762
X007112Y0085344
X0069088
X0067056
X0068072Y0083312
X0070104
X007112Y008128
X0069088
X0067056
X008128
X0083312
X0085344
X0087376
X0089408
X009144
X0092456Y0083312
X0090424
X0088392
X008636
X0084328
X0082296
X0080264
X008128Y0085344
X0083312
X0085344
X0087376
X0089408
X009144
X0092456Y0087376
X0090424
X0088392
X008636
X0084328
X0082296
X0080264
Y009144
X0082296
X0084328
X008636
X0088392
X0090424
X0092456
Y0095504
X0093472Y0097536
X009144
X0089408
X0087376
X0088392Y0095504
X008636
X0084328
X0082296
X0080264
X008128Y0097536
X0083312
Y0093472
X0085344
X0087376
X0089408
X0095504
X0098552Y0095504
X0103632Y0093472
X0102616Y009144
X0105664Y0089408
X0107696
X01097286Y00896626
X01109986
Y00909326
Y00922026
X01097286Y00934726
X0109728Y0094742
Y0096012
X0110998
X0109728Y0097536
X0107696
X010668Y0099568
X0105664Y01016
Y0105664
X010668Y0107696
X0108712
X0110744
X0112776
X0114808
X011684
X0118872
X0117856Y0105664
X0115824
X0113792
X0114808Y0103632
X011684
X0118872
X0117856Y01016
X0115824
X0113792
X0114808Y0099568
X011684
X0118872
X0117856Y0097536
X0115824
X01160774Y00960114
Y00947414
X0116078Y0093472
Y0092202
Y0090932
Y0089662
X0114808
Y0088392
Y0087122
X0116078
Y0085852
Y0084582
X0114808
Y0083312
Y0082042
X0116078
Y0080772
X0114808
Y0079502
X0116078
Y0083312
X0112776
X01109986Y00833126
X01097286
X0109728Y0084582
X01097286Y00858526
Y0087122
X0109728Y00883914
X01109986Y00883926
Y00871226
Y00858526
Y00845826
Y00820426
X01097286
X01109986Y00807726
Y00795026
X0113792Y008128
Y0085344
X0114808Y0085852
X0112776Y0087376
X0116078Y0088392
X0117856Y0089408
X0118872Y009144
X0117856Y0093472
X0118872Y0095504
X01148074Y00960114
Y00947414
X0114808Y0093472
X0113792
X0114808Y0092202
Y0090932
X0118872Y0087376
X0118999Y00813816
X0103632Y008128
X01016
X0102616Y0083312
X0100584
X0098552
X0099568Y0085344
X0103632
X0099568Y0089408
Y01016
X0098552Y0103632
X0099568Y0105664
X0100584Y0107696
X01016Y0109728
X0099568
X0097536
X0095504
X0093472
X009144
X0089408
X0090424Y011176
X0092456
X009144Y0113792
X0089408
X0087376
X0085344
X0083312
X008128
X0082296Y0115824
X0084328
X008636
X0088392
X0090424
X0092456
X0095504Y0113792
X0099568
X0100584Y0115824
X0098552
Y011176
X0100584
X0103632Y0113792
X0105664
X010668Y011176
X0108712
X0110744
X0112776
X0113792Y0109728
X0115824
X011176
X0109728
Y0113792
X011176
X0108712Y0115824
X0107696Y0117856
X0105664
X0104648Y0115824
X0105664Y0109728
X0109728Y0105664
X0113792Y0097536
X0095504Y01016
X0092456Y0103632
X0090424
X0088392
X008636
X00845526Y01048379
X0082296Y0103632
X0080264
X008128Y0105664
X0082296Y0107696
X0080264
Y011176
X0082296
X0084328
X00845533Y01086485
X008636Y0107696
X0088392
X0089408Y0105664
X0087376
Y01016
X00845533Y01010285
X008128Y01016
Y0093472
X0080264Y0115824
X0088392Y011176
X0092456Y0107696
X0095504Y008128
X0119888
X01200404Y0083947
X0122936Y0083312
X0123952Y0085344
X01232408Y00867664
X0120904Y0087376
X0119888Y0089408
X0120904Y009144
X0122936
X0124968
X0127
X0129032
X0131064
X0130048Y0093472
X0131064Y0095504
X0129032
X0127
X0124968
X0122936
X0120904
X012192Y0097536
X0123952
X0125984
X0128016
X0130048
X0131064Y0099568
X0129032
X0127
X0124968
X0122936
X0120904
X012192Y01016
X0123952
X0122936Y0103632
X0120904
X012192Y0105664
X0123952
X0124968Y0107696
X0127
X0129032
X0130048Y0105664
X0131064Y0103632
X0130048Y01016
X0119888
Y0105664
X0120904Y0107696
X0122936
X0119888Y0097536
Y0093472
X012192
X0123952
Y0089408
X0130048
X0131064Y0087376
X0130048Y0085344
X0131064Y0083312
X0129032
X0130048Y008128
X0128016
X0125984
X0104648Y0119888
X0103632Y012192
X01016
X0099568
X0100584Y0123952
X0098552
X009652
X0094488
X0092456
X0090424
X0088392
X008636
X0084328
X0082296
X0080264
X008128Y0125984
X0083312
X0085344
X0087376
X0089408
X009144
X0093472
X0095504
X0097536
X0099568
X009652Y0128016
X0094488
X0092456
X0090424
X0088392
X008636
X0084328
X0082296
X0080264
X008128Y0130048
X0083312
X0085344
X0087376
X0089408
X009144
X0093472
X0095504
X0092456Y013208
X0090424
X0088392
X008636
X0084328
X0082296
X0080264
X008128Y012192
X0083312
X0085344
X0087376
X0089408
X009144
X0092456Y0119888
X0090424
X0088392
X008636
X0095504Y012192
X0079248
X0077216
X0078232Y0123952
X00762
X0074168
X0072136
X0070104
X0068072
X0069088Y0125984
X0067056
X0068072Y0128016
X0067056Y0130048
X0070104Y013208
X0072136
X0074168
X00762
X0078232
X0079248Y0130048
X0077216
X0075184
X00762Y0128016
X0078232
X0079248Y0125984
X0077216
X0075184
X0073152
X0074168Y0128016
X007112Y012192
X0069088
X0067056
X0068072Y0119888
X0070104
T02
X0072263Y0022352
X0074803
Y0024892
Y0027432
X0072263
Y0029972
Y0032512
Y0035052
Y0037592
X0074803
Y0035052
Y0032512
Y0029972
X0072263Y0024892
X0094234
Y0022352
X0096774
Y0024892
Y0027432
Y0029972
Y0032512
Y0035052
Y0037592
X0094234
Y0035052
Y0032512
Y0029972
Y0027432
X0126746Y0046101
Y0048635
Y0050921
Y0053207
X0127889Y006985
X0125349
Y007239
Y007493
X0127889
Y007239
Y007747
X0125349
X0096774Y0078232
X0094234
Y0075692
X0096774
Y0073152
Y0070612
X0094234
Y0068072
X0096774
Y0065532
X0094234
Y0062992
X0096774
Y0060452
X0094234
Y0057912
X0096774
Y0055372
X0094234
Y0052832
X0096774
Y0050292
X0094234
Y0047752
X0096774
Y0045212
X0094234
Y0042672
X0096774
Y0040132
X0094234
Y0073152
X0074803
Y0070612
X0072263
Y0068072
X0074803
Y0065532
X0072263
Y0062992
X0074803
Y0060452
X0072263
Y0057912
X0074803
Y0055372
X0072263
Y0052832
Y0050292
X0074803
Y0047752
X0072263
Y0045212
Y0042672
X0074803
Y0040132
X0072263
X0074803Y0045212
Y0052832
Y0075692
Y0078232
X0072263
Y0075692
Y0073152
Y0080772
Y0083312
Y0085852
Y0088392
Y0090932
Y0093472
X0074803
Y0096012
Y0098552
Y0101092
Y0103632
Y0106172
Y0108712
Y0111252
Y0113792
Y0116332
Y0118872
X0072263
Y0116332
Y0113792
Y0111252
Y0108712
Y0106172
Y0103632
Y0101092
Y0098552
Y0096012
X0074803Y0090932
Y0088392
Y0085852
Y0083312
Y0080772
X0094234
Y0083312
Y0085852
Y0088392
Y0090932
X0096774
Y0093472
Y0096012
Y0098552
Y0101092
Y0103632
Y0106172
Y0108712
Y0111252
Y0113792
Y0116332
Y0118872
X0094234
Y0116332
Y0113792
Y0111252
Y0108712
Y0106172
Y0103632
Y0101092
Y0098552
Y0096012
Y0093472
X0096774Y0088392
Y0085852
Y0083312
Y0080772
X0125349Y008001
X0127889
Y008255
X0125349
Y008509
X0127889
Y008763
X0125349
Y009017
Y009271
X0127889
Y009017
X0096774Y0121412
X0094234
X0074803
X0072263
T03
X0084582Y0032512
X00855726Y00453644
X00846074Y00655066
X0085598Y0078359
X00846571Y00984123
X00856477Y01112647
T04
X007112Y001651
X0127Y004064
X0111538Y0040369
Y0103369
X0127Y010414
X007112Y012827
T05
X0110488Y0044679
X0113538Y009906
M30
