G04*
G04 #@! TF.GenerationSoftware,Altium Limited,Altium Designer,25.5.2 (35)*
G04*
G04 Layer_Color=8388736*
%FSLAX44Y44*%
%MOMM*%
G71*
G04*
G04 #@! TF.SameCoordinates,1A5A03D7-52CA-4A71-BDE1-DE34C6CC3817*
G04*
G04*
G04 #@! TF.FilePolarity,Negative*
G04*
G01*
G75*
%ADD14C,0.1524*%
%ADD16C,0.2540*%
%ADD20C,1.2700*%
G04:AMPARAMS|DCode=21|XSize=2.0716mm|YSize=0.7016mm|CornerRadius=0.1258mm|HoleSize=0mm|Usage=FLASHONLY|Rotation=270.000|XOffset=0mm|YOffset=0mm|HoleType=Round|Shape=RoundedRectangle|*
%AMROUNDEDRECTD21*
21,1,2.0716,0.4500,0,0,270.0*
21,1,1.8200,0.7016,0,0,270.0*
1,1,0.2516,-0.2250,-0.9100*
1,1,0.2516,-0.2250,0.9100*
1,1,0.2516,0.2250,0.9100*
1,1,0.2516,0.2250,-0.9100*
%
%ADD21ROUNDEDRECTD21*%
%ADD22R,0.6516X0.6516*%
%ADD23R,2.4892X0.9906*%
%ADD24R,0.7874X0.6604*%
%ADD25C,5.1016*%
%ADD26C,1.7516*%
%ADD27C,1.9558*%
%ADD28C,1.3716*%
D14*
X1182370Y773684D02*
X1187450D01*
X1182370Y785876D02*
X1187450D01*
X1179830Y677164D02*
X1184910D01*
X1179830Y689356D02*
X1184910D01*
X1178560Y634238D02*
X1183640D01*
X1178560Y622046D02*
X1183640D01*
X1178560Y650748D02*
X1183640D01*
X1178560Y638556D02*
X1183640D01*
X1182370Y803656D02*
X1187450D01*
X1182370Y791464D02*
X1187450D01*
X1182370Y824484D02*
X1187450D01*
X1182370Y836676D02*
X1187450D01*
X1182370Y854456D02*
X1187450D01*
X1182370Y842264D02*
X1187450D01*
X1179830Y671576D02*
X1184910D01*
X1179830Y659384D02*
X1184910D01*
X1182370Y752856D02*
X1187450D01*
X1182370Y740664D02*
X1187450D01*
X1182370Y722884D02*
X1187450D01*
X1182370Y735076D02*
X1187450D01*
X1182370Y819912D02*
X1187450D01*
X1182370Y807720D02*
X1187450D01*
D16*
X1179830Y779780D02*
D03*
X1189990D02*
D03*
X1177290Y683260D02*
D03*
X1187450D02*
D03*
X1176020Y644652D02*
D03*
X1186180Y628142D02*
D03*
X1176020D02*
D03*
X1186180Y644652D02*
D03*
X1189990Y797560D02*
D03*
X1179830D02*
D03*
Y830580D02*
D03*
X1189990D02*
D03*
Y848360D02*
D03*
X1179830D02*
D03*
X1187450Y665480D02*
D03*
X1177290D02*
D03*
X1189990Y746760D02*
D03*
X1179830D02*
D03*
Y728980D02*
D03*
X1189990D02*
D03*
Y813816D02*
D03*
X1179830D02*
D03*
D20*
X1187958Y779780D02*
G03*
X1187958Y779780I-508J0D01*
G01*
X1182878D02*
G03*
X1182878Y779780I-508J0D01*
G01*
X1185418Y683260D02*
G03*
X1185418Y683260I-508J0D01*
G01*
X1180338D02*
G03*
X1180338Y683260I-508J0D01*
G01*
X1179068Y628142D02*
G03*
X1179068Y628142I-508J0D01*
G01*
X1184148D02*
G03*
X1184148Y628142I-508J0D01*
G01*
X1179068Y644652D02*
G03*
X1179068Y644652I-508J0D01*
G01*
X1184148D02*
G03*
X1184148Y644652I-508J0D01*
G01*
X1182878Y797560D02*
G03*
X1182878Y797560I-508J0D01*
G01*
X1187958D02*
G03*
X1187958Y797560I-508J0D01*
G01*
Y830580D02*
G03*
X1187958Y830580I-508J0D01*
G01*
X1182878D02*
G03*
X1182878Y830580I-508J0D01*
G01*
Y848360D02*
G03*
X1182878Y848360I-508J0D01*
G01*
X1187958D02*
G03*
X1187958Y848360I-508J0D01*
G01*
X1180338Y665480D02*
G03*
X1180338Y665480I-508J0D01*
G01*
X1185418D02*
G03*
X1185418Y665480I-508J0D01*
G01*
X1182878Y746760D02*
G03*
X1182878Y746760I-508J0D01*
G01*
X1187958D02*
G03*
X1187958Y746760I-508J0D01*
G01*
Y728980D02*
G03*
X1187958Y728980I-508J0D01*
G01*
X1182878D02*
G03*
X1182878Y728980I-508J0D01*
G01*
Y813816D02*
G03*
X1182878Y813816I-508J0D01*
G01*
X1187958D02*
G03*
X1187958Y813816I-508J0D01*
G01*
D21*
X1248410Y639380D02*
D03*
X1235710D02*
D03*
X1223010D02*
D03*
X1210310D02*
D03*
Y589980D02*
D03*
X1223010D02*
D03*
X1235710D02*
D03*
X1248410D02*
D03*
D22*
X1223010Y564570D02*
D03*
X1210310Y555642D02*
D03*
Y564642D02*
D03*
X1223010Y555570D02*
D03*
D23*
X845533Y1086485D02*
D03*
Y1073785D02*
D03*
Y1061085D02*
D03*
Y1048385D02*
D03*
Y1035685D02*
D03*
Y1022985D02*
D03*
Y1010285D02*
D03*
X845036Y757428D02*
D03*
Y719328D02*
D03*
Y681228D02*
D03*
X844782Y427482D02*
D03*
Y389382D02*
D03*
Y351282D02*
D03*
Y414782D02*
D03*
Y402082D02*
D03*
X845036Y693928D02*
D03*
Y706628D02*
D03*
Y732028D02*
D03*
Y744728D02*
D03*
X844782Y363982D02*
D03*
Y376682D02*
D03*
D24*
X1248508Y563024D02*
D03*
Y573024D02*
D03*
D25*
X1115380Y1033690D02*
D03*
Y403690D02*
D03*
X1270000Y1041400D02*
D03*
Y406400D02*
D03*
X711200Y165100D02*
D03*
X711200Y1282700D02*
D03*
D26*
X942340Y223520D02*
D03*
X967740D02*
D03*
Y706120D02*
D03*
X942340D02*
D03*
Y680720D02*
D03*
X967740D02*
D03*
X942340Y655320D02*
D03*
X967740D02*
D03*
X942340Y629920D02*
D03*
X967740D02*
D03*
X942340Y604520D02*
D03*
X967740D02*
D03*
X942340Y579120D02*
D03*
X967740D02*
D03*
X942340Y553720D02*
D03*
X967740D02*
D03*
X942340Y528320D02*
D03*
X967740D02*
D03*
X942340Y502920D02*
D03*
X967740D02*
D03*
X942340Y477520D02*
D03*
X967740D02*
D03*
X942340Y452120D02*
D03*
X967740D02*
D03*
X942340Y426720D02*
D03*
X967740D02*
D03*
X942340Y401320D02*
D03*
X967740D02*
D03*
X942340Y375920D02*
D03*
X967740D02*
D03*
X942340Y350520D02*
D03*
X967740D02*
D03*
X942340Y325120D02*
D03*
X967740D02*
D03*
X942340Y299720D02*
D03*
X967740D02*
D03*
X942340Y274320D02*
D03*
X967740D02*
D03*
X942340Y248920D02*
D03*
X967740D02*
D03*
Y1188720D02*
D03*
X942340Y1214120D02*
D03*
X967740D02*
D03*
X942340Y1188720D02*
D03*
Y1163320D02*
D03*
X967740D02*
D03*
X942340Y1137920D02*
D03*
X967740D02*
D03*
X942340Y1112520D02*
D03*
X967740D02*
D03*
X942340Y1087120D02*
D03*
X967740D02*
D03*
X942340Y1061720D02*
D03*
X967740D02*
D03*
X942340Y1036320D02*
D03*
X967740D02*
D03*
X942340Y1010920D02*
D03*
X967740D02*
D03*
X942340Y985520D02*
D03*
X967740D02*
D03*
Y960120D02*
D03*
Y934720D02*
D03*
X942340Y909320D02*
D03*
X967740D02*
D03*
X942340Y883920D02*
D03*
Y858520D02*
D03*
X967740D02*
D03*
X942340Y833120D02*
D03*
X967740D02*
D03*
X942340Y807720D02*
D03*
X967740D02*
D03*
X942340Y782320D02*
D03*
X967740D02*
D03*
X942340Y756920D02*
D03*
X967740D02*
D03*
X942340Y731520D02*
D03*
X967740D02*
D03*
Y883920D02*
D03*
X942340Y934720D02*
D03*
Y960120D02*
D03*
X722630Y223520D02*
D03*
X748030D02*
D03*
Y706120D02*
D03*
X722630D02*
D03*
Y680720D02*
D03*
X748030D02*
D03*
X722630Y655320D02*
D03*
X748030D02*
D03*
X722630Y629920D02*
D03*
X748030D02*
D03*
X722630Y604520D02*
D03*
X748030D02*
D03*
X722630Y579120D02*
D03*
X748030D02*
D03*
X722630Y553720D02*
D03*
Y528320D02*
D03*
Y502920D02*
D03*
X748030D02*
D03*
X722630Y477520D02*
D03*
X748030Y426720D02*
D03*
X722630Y401320D02*
D03*
X748030D02*
D03*
X722630Y375920D02*
D03*
Y350520D02*
D03*
X748030D02*
D03*
X722630Y325120D02*
D03*
Y299720D02*
D03*
Y274320D02*
D03*
X748030D02*
D03*
X722630Y248920D02*
D03*
X748030D02*
D03*
Y1188720D02*
D03*
X722630Y1214120D02*
D03*
X748030D02*
D03*
X722630Y1188720D02*
D03*
Y1163320D02*
D03*
X748030D02*
D03*
X722630Y1137920D02*
D03*
X748030D02*
D03*
X722630Y1112520D02*
D03*
X748030D02*
D03*
X722630Y1087120D02*
D03*
X748030D02*
D03*
X722630Y1061720D02*
D03*
X748030D02*
D03*
X722630Y1036320D02*
D03*
X748030D02*
D03*
X722630Y1010920D02*
D03*
X748030D02*
D03*
X722630Y985520D02*
D03*
X748030D02*
D03*
Y960120D02*
D03*
X722630Y934720D02*
D03*
X748030D02*
D03*
X722630Y909320D02*
D03*
X748030D02*
D03*
X722630Y883920D02*
D03*
X748030D02*
D03*
X722630Y858520D02*
D03*
X748030D02*
D03*
X722630Y833120D02*
D03*
X748030D02*
D03*
X722630Y807720D02*
D03*
X748030D02*
D03*
X722630Y782320D02*
D03*
X748030D02*
D03*
X722630Y756920D02*
D03*
X748030D02*
D03*
X722630Y731520D02*
D03*
X748030D02*
D03*
X722630Y426720D02*
D03*
Y960120D02*
D03*
Y452120D02*
D03*
X748030Y325120D02*
D03*
Y375920D02*
D03*
Y299720D02*
D03*
Y477520D02*
D03*
Y553720D02*
D03*
Y528320D02*
D03*
Y452120D02*
D03*
X1267460Y461010D02*
D03*
X1278890Y927100D02*
D03*
X1253490Y698500D02*
D03*
X1267460Y532070D02*
D03*
X1253490Y749300D02*
D03*
X1267460Y486350D02*
D03*
Y509210D02*
D03*
X1278890Y723900D02*
D03*
Y749300D02*
D03*
Y698500D02*
D03*
X1253490Y723900D02*
D03*
X1278890Y774700D02*
D03*
X1253490D02*
D03*
X1278890Y800100D02*
D03*
X1253490D02*
D03*
X1278890Y825500D02*
D03*
X1253490D02*
D03*
X1278890Y850900D02*
D03*
X1253490D02*
D03*
X1278890Y876300D02*
D03*
X1253490D02*
D03*
Y901700D02*
D03*
Y927100D02*
D03*
X1278890Y901700D02*
D03*
D27*
X846571Y984123D02*
D03*
X856477Y1112647D02*
D03*
X855980Y783590D02*
D03*
X846074Y655066D02*
D03*
X855726Y453644D02*
D03*
X845820Y325120D02*
D03*
D28*
X1135380Y990600D02*
D03*
X1104880Y446790D02*
D03*
M02*
