G04*
G04 #@! TF.GenerationSoftware,Altium Limited,Altium Designer,25.5.2 (35)*
G04*
G04 Layer_Color=16711935*
%FSLAX44Y44*%
%MOMM*%
G71*
G04*
G04 #@! TF.SameCoordinates,1A5A03D7-52CA-4A71-BDE1-DE34C6CC3817*
G04*
G04*
G04 #@! TF.FilePolarity,Negative*
G04*
G01*
G75*
%ADD25C,5.1016*%
%ADD26C,1.7516*%
%ADD27C,1.9558*%
%ADD28C,1.3716*%
%ADD45C,0.7416*%
D25*
X1115380Y1033690D02*
D03*
Y403690D02*
D03*
X1270000Y1041400D02*
D03*
Y406400D02*
D03*
X711200Y165100D02*
D03*
X711200Y1282700D02*
D03*
D26*
X942340Y223520D02*
D03*
X967740D02*
D03*
Y706120D02*
D03*
X942340D02*
D03*
Y680720D02*
D03*
X967740D02*
D03*
X942340Y655320D02*
D03*
X967740D02*
D03*
X942340Y629920D02*
D03*
X967740D02*
D03*
X942340Y604520D02*
D03*
X967740D02*
D03*
X942340Y579120D02*
D03*
X967740D02*
D03*
X942340Y553720D02*
D03*
X967740D02*
D03*
X942340Y528320D02*
D03*
X967740D02*
D03*
X942340Y502920D02*
D03*
X967740D02*
D03*
X942340Y477520D02*
D03*
X967740D02*
D03*
X942340Y452120D02*
D03*
X967740D02*
D03*
X942340Y426720D02*
D03*
X967740D02*
D03*
X942340Y401320D02*
D03*
X967740D02*
D03*
X942340Y375920D02*
D03*
X967740D02*
D03*
X942340Y350520D02*
D03*
X967740D02*
D03*
X942340Y325120D02*
D03*
X967740D02*
D03*
X942340Y299720D02*
D03*
X967740D02*
D03*
X942340Y274320D02*
D03*
X967740D02*
D03*
X942340Y248920D02*
D03*
X967740D02*
D03*
Y1188720D02*
D03*
X942340Y1214120D02*
D03*
X967740D02*
D03*
X942340Y1188720D02*
D03*
Y1163320D02*
D03*
X967740D02*
D03*
X942340Y1137920D02*
D03*
X967740D02*
D03*
X942340Y1112520D02*
D03*
X967740D02*
D03*
X942340Y1087120D02*
D03*
X967740D02*
D03*
X942340Y1061720D02*
D03*
X967740D02*
D03*
X942340Y1036320D02*
D03*
X967740D02*
D03*
X942340Y1010920D02*
D03*
X967740D02*
D03*
X942340Y985520D02*
D03*
X967740D02*
D03*
Y960120D02*
D03*
Y934720D02*
D03*
X942340Y909320D02*
D03*
X967740D02*
D03*
X942340Y883920D02*
D03*
Y858520D02*
D03*
X967740D02*
D03*
X942340Y833120D02*
D03*
X967740D02*
D03*
X942340Y807720D02*
D03*
X967740D02*
D03*
X942340Y782320D02*
D03*
X967740D02*
D03*
X942340Y756920D02*
D03*
X967740D02*
D03*
X942340Y731520D02*
D03*
X967740D02*
D03*
Y883920D02*
D03*
X942340Y934720D02*
D03*
Y960120D02*
D03*
X722630Y223520D02*
D03*
X748030D02*
D03*
Y706120D02*
D03*
X722630D02*
D03*
Y680720D02*
D03*
X748030D02*
D03*
X722630Y655320D02*
D03*
X748030D02*
D03*
X722630Y629920D02*
D03*
X748030D02*
D03*
X722630Y604520D02*
D03*
X748030D02*
D03*
X722630Y579120D02*
D03*
X748030D02*
D03*
X722630Y553720D02*
D03*
Y528320D02*
D03*
Y502920D02*
D03*
X748030D02*
D03*
X722630Y477520D02*
D03*
X748030Y426720D02*
D03*
X722630Y401320D02*
D03*
X748030D02*
D03*
X722630Y375920D02*
D03*
Y350520D02*
D03*
X748030D02*
D03*
X722630Y325120D02*
D03*
Y299720D02*
D03*
Y274320D02*
D03*
X748030D02*
D03*
X722630Y248920D02*
D03*
X748030D02*
D03*
Y1188720D02*
D03*
X722630Y1214120D02*
D03*
X748030D02*
D03*
X722630Y1188720D02*
D03*
Y1163320D02*
D03*
X748030D02*
D03*
X722630Y1137920D02*
D03*
X748030D02*
D03*
X722630Y1112520D02*
D03*
X748030D02*
D03*
X722630Y1087120D02*
D03*
X748030D02*
D03*
X722630Y1061720D02*
D03*
X748030D02*
D03*
X722630Y1036320D02*
D03*
X748030D02*
D03*
X722630Y1010920D02*
D03*
X748030D02*
D03*
X722630Y985520D02*
D03*
X748030D02*
D03*
Y960120D02*
D03*
X722630Y934720D02*
D03*
X748030D02*
D03*
X722630Y909320D02*
D03*
X748030D02*
D03*
X722630Y883920D02*
D03*
X748030D02*
D03*
X722630Y858520D02*
D03*
X748030D02*
D03*
X722630Y833120D02*
D03*
X748030D02*
D03*
X722630Y807720D02*
D03*
X748030D02*
D03*
X722630Y782320D02*
D03*
X748030D02*
D03*
X722630Y756920D02*
D03*
X748030D02*
D03*
X722630Y731520D02*
D03*
X748030D02*
D03*
X722630Y426720D02*
D03*
Y960120D02*
D03*
Y452120D02*
D03*
X748030Y325120D02*
D03*
Y375920D02*
D03*
Y299720D02*
D03*
Y477520D02*
D03*
Y553720D02*
D03*
Y528320D02*
D03*
Y452120D02*
D03*
X1267460Y461010D02*
D03*
X1278890Y927100D02*
D03*
X1253490Y698500D02*
D03*
X1267460Y532070D02*
D03*
X1253490Y749300D02*
D03*
X1267460Y486350D02*
D03*
Y509210D02*
D03*
X1278890Y723900D02*
D03*
Y749300D02*
D03*
Y698500D02*
D03*
X1253490Y723900D02*
D03*
X1278890Y774700D02*
D03*
X1253490D02*
D03*
X1278890Y800100D02*
D03*
X1253490D02*
D03*
X1278890Y825500D02*
D03*
X1253490D02*
D03*
X1278890Y850900D02*
D03*
X1253490D02*
D03*
X1278890Y876300D02*
D03*
X1253490D02*
D03*
Y901700D02*
D03*
Y927100D02*
D03*
X1278890Y901700D02*
D03*
D27*
X846571Y984123D02*
D03*
X856477Y1112647D02*
D03*
X855980Y783590D02*
D03*
X846074Y655066D02*
D03*
X855726Y453644D02*
D03*
X845820Y325120D02*
D03*
D28*
X1135380Y990600D02*
D03*
X1104880Y446790D02*
D03*
D45*
X1167130Y940950D02*
D03*
Y953650D02*
D03*
Y598050D02*
D03*
X1154430Y686950D02*
D03*
X1167130Y699650D02*
D03*
X1103630Y953650D02*
D03*
Y966350D02*
D03*
X1116330Y483750D02*
D03*
X1103630Y471050D02*
D03*
X1116330Y623450D02*
D03*
Y636150D02*
D03*
X1103630Y839350D02*
D03*
Y877450D02*
D03*
Y852050D02*
D03*
X1167130Y966350D02*
D03*
Y928250D02*
D03*
Y877450D02*
D03*
Y915550D02*
D03*
Y864750D02*
D03*
X1154430Y940950D02*
D03*
Y953650D02*
D03*
X1167130Y826650D02*
D03*
Y813950D02*
D03*
Y775850D02*
D03*
Y763150D02*
D03*
X1154430Y852050D02*
D03*
Y813950D02*
D03*
Y775850D02*
D03*
Y902850D02*
D03*
Y890150D02*
D03*
X1116330Y928250D02*
D03*
Y966350D02*
D03*
Y915550D02*
D03*
Y877450D02*
D03*
Y839350D02*
D03*
Y801250D02*
D03*
Y763150D02*
D03*
X1167130Y712350D02*
D03*
Y725050D02*
D03*
Y674250D02*
D03*
Y661550D02*
D03*
Y496450D02*
D03*
Y521850D02*
D03*
Y471050D02*
D03*
Y623450D02*
D03*
Y610750D02*
D03*
Y572650D02*
D03*
Y559950D02*
D03*
X1154430Y699650D02*
D03*
Y737750D02*
D03*
Y661550D02*
D03*
X1116330Y725050D02*
D03*
Y686950D02*
D03*
X1154430Y623450D02*
D03*
Y483750D02*
D03*
Y509150D02*
D03*
X1116330Y496450D02*
D03*
Y534550D02*
D03*
Y471050D02*
D03*
Y610750D02*
D03*
Y648850D02*
D03*
Y572650D02*
D03*
X1103630Y940950D02*
D03*
Y902850D02*
D03*
Y864750D02*
D03*
Y826650D02*
D03*
Y750450D02*
D03*
Y788550D02*
D03*
Y674250D02*
D03*
Y636150D02*
D03*
Y712350D02*
D03*
Y598050D02*
D03*
Y559950D02*
D03*
Y521850D02*
D03*
Y483750D02*
D03*
Y890150D02*
D03*
X1167130Y648850D02*
D03*
X1154430Y839350D02*
D03*
X1116330Y585350D02*
D03*
Y598050D02*
D03*
Y509150D02*
D03*
Y547250D02*
D03*
Y521850D02*
D03*
X1154430Y826650D02*
D03*
X1103630Y585350D02*
D03*
Y572650D02*
D03*
X1167130Y801250D02*
D03*
X1103630Y496450D02*
D03*
Y509150D02*
D03*
Y534550D02*
D03*
Y547250D02*
D03*
X1116330Y559950D02*
D03*
X1103630Y610750D02*
D03*
Y623450D02*
D03*
Y648850D02*
D03*
X1116330Y661550D02*
D03*
X1103630D02*
D03*
X1116330Y674250D02*
D03*
X1103630Y686950D02*
D03*
X1116330Y699650D02*
D03*
X1103630D02*
D03*
X1116330Y712350D02*
D03*
X1103630Y725050D02*
D03*
X1116330Y737750D02*
D03*
X1103630D02*
D03*
X1116330Y750450D02*
D03*
X1103630Y763150D02*
D03*
X1116330Y775850D02*
D03*
X1103630D02*
D03*
X1116330Y788550D02*
D03*
X1103630Y801250D02*
D03*
X1116330Y813950D02*
D03*
X1103630D02*
D03*
X1116330Y826650D02*
D03*
Y852050D02*
D03*
Y864750D02*
D03*
Y890150D02*
D03*
Y940950D02*
D03*
Y953650D02*
D03*
X1154430Y471050D02*
D03*
Y496450D02*
D03*
Y521850D02*
D03*
Y534550D02*
D03*
Y547250D02*
D03*
Y559950D02*
D03*
Y572650D02*
D03*
Y585350D02*
D03*
Y598050D02*
D03*
Y610750D02*
D03*
Y636150D02*
D03*
Y648850D02*
D03*
Y674250D02*
D03*
Y712350D02*
D03*
Y725050D02*
D03*
Y750450D02*
D03*
Y763150D02*
D03*
Y788550D02*
D03*
Y801250D02*
D03*
Y864750D02*
D03*
Y877450D02*
D03*
Y915550D02*
D03*
Y928250D02*
D03*
Y966350D02*
D03*
X1167130Y483750D02*
D03*
Y509150D02*
D03*
Y534550D02*
D03*
Y547250D02*
D03*
Y585350D02*
D03*
Y636150D02*
D03*
Y686950D02*
D03*
Y737750D02*
D03*
Y750450D02*
D03*
Y788550D02*
D03*
Y839350D02*
D03*
Y852050D02*
D03*
Y890150D02*
D03*
Y902850D02*
D03*
X1103630Y915550D02*
D03*
Y928250D02*
D03*
X1116330Y902850D02*
D03*
M02*
